<?xml version="1.0" encoding="UTF-8" standalone="no"?><svg xmlns="http://www.w3.org/2000/svg" xmlns:xlink="http://www.w3.org/1999/xlink" contentScriptType="application/ecmascript" contentStyleType="text/css" height="939px" preserveAspectRatio="none" style="width:728px;height:939px;background:#FFFFFF;" version="1.1" viewBox="0 0 728 939" width="728px" zoomAndPan="magnify"><defs><filter height="300%" id="fpygfs9tmjxas" width="300%" x="-1" y="-1"><feGaussianBlur result="blurOut" stdDeviation="2.0"/><feColorMatrix in="blurOut" result="blurOut2" type="matrix" values="0 0 0 0 0 0 0 0 0 0 0 0 0 0 0 0 0 0 .4 0"/><feOffset dx="4.0" dy="4.0" in="blurOut2" result="blurOut3"/><feBlend in="SourceGraphic" in2="blurOut3" mode="normal"/></filter></defs><g><!--MD5=[6130c60027cb57cdf173ce39f44ff212]
class ControladorDeGui--><rect codeLine="2" fill="#FEFECE" filter="url(#fpygfs9tmjxas)" height="107.9276" id="ControladorDeGui" style="stroke:#A80036;stroke-width:1.5;" width="134" x="306" y="7"/><ellipse cx="321" cy="23" fill="#ADD1B2" rx="11" ry="11" style="stroke:#A80036;stroke-width:1.0;"/><path d="M320.4688,29.9219 Q318.7188,29.9219 317.5781,29.1875 Q316.4531,28.4375 315.8906,27.0938 Q315.3438,25.7344 315.3438,23.9375 Q315.3438,21.9063 316,20.4531 Q316.6563,19 317.9375,18.2188 Q319.2188,17.4375 321.0938,17.4375 Q321.9844,17.4375 322.6563,17.625 Q323.3281,17.7969 324.0156,18.1406 L323.2031,20.1563 Q322.5781,19.8438 322.0313,19.7188 Q321.5,19.5938 321.0156,19.5938 Q319.8438,19.5938 319.1406,20.125 Q318.4375,20.6563 318.1406,21.6094 Q317.8438,22.5625 317.8438,23.8281 Q317.8438,25.8438 318.5625,26.8125 Q319.2813,27.7656 320.875,27.7656 Q321.4688,27.7656 322.0938,27.6094 Q322.7188,27.4531 323.5469,27.0781 L323.5469,29.2969 Q322.8125,29.6094 322.0156,29.7656 Q321.2344,29.9219 320.4688,29.9219 Z " fill="#000000"/><text fill="#000000" font-family="sans-serif" font-size="12" lengthAdjust="spacing" textLength="102" x="335" y="27.656">ControladorDeGui</text><line style="stroke:#A80036;stroke-width:1.5;" x1="307" x2="439" y1="39" y2="39"/><rect fill="none" height="6" style="stroke:#C82930;stroke-width:1.0;" width="6" x="314" y="47"/><text fill="#000000" font-family="sans-serif" font-size="11" lengthAdjust="spacing" textLength="53" x="326" y="54.7589">estadoGui</text><line style="stroke:#A80036;stroke-width:1.5;" x1="307" x2="439" y1="61.9819" y2="61.9819"/><ellipse cx="317" cy="72.9819" fill="#84BE84" rx="3" ry="3" style="stroke:#038048;stroke-width:1.0;"/><text fill="#000000" font-family="sans-serif" font-size="11" lengthAdjust="spacing" textLength="98" x="326" y="77.7408">entraTexto():String</text><ellipse cx="317" cy="87.9638" fill="#84BE84" rx="3" ry="3" style="stroke:#038048;stroke-width:1.0;"/><text fill="#000000" font-family="sans-serif" font-size="11" lengthAdjust="spacing" textLength="32" x="326" y="92.7227">abrir()</text><ellipse cx="317" cy="102.9457" fill="#84BE84" rx="3" ry="3" style="stroke:#038048;stroke-width:1.0;"/><text fill="#000000" font-family="sans-serif" font-size="11" lengthAdjust="spacing" textLength="39" x="326" y="107.7046">fechar()</text><!--MD5=[e0fddca87f21341e5dd21bbb64d2fab9]
class estadoGui--><rect codeLine="9" fill="#FEFECE" filter="url(#fpygfs9tmjxas)" height="77.9638" id="estadoGui" style="stroke:#A80036;stroke-width:1.5;" width="129" x="125.5" y="175"/><ellipse cx="158.5" cy="191" fill="#EB937F" rx="11" ry="11" style="stroke:#A80036;stroke-width:1.0;"/><path d="M154.8594,197.5 L154.8594,185.3594 L162.5156,185.3594 L162.5156,187.4844 L157.2344,187.4844 L157.2344,190.1406 L162.25,190.1406 L162.25,192.2656 L157.2344,192.2656 L157.2344,195.375 L162.5156,195.375 L162.5156,197.5 L154.8594,197.5 Z " fill="#000000"/><text fill="#000000" font-family="sans-serif" font-size="12" lengthAdjust="spacing" textLength="57" x="176.5" y="195.656">estadoGui</text><line style="stroke:#A80036;stroke-width:1.5;" x1="126.5" x2="253.5" y1="207" y2="207"/><ellipse cx="136.5" cy="218" rx="3" ry="3" style="stroke:#038048;stroke-width:1.0;fill:none;"/><text fill="#000000" font-family="sans-serif" font-size="11" lengthAdjust="spacing" textLength="43" x="145.5" y="222.7589">Standby</text><ellipse cx="136.5" cy="232.9819" rx="3" ry="3" style="stroke:#038048;stroke-width:1.0;fill:none;"/><text fill="#000000" font-family="sans-serif" font-size="11" lengthAdjust="spacing" textLength="103" x="145.5" y="237.7408">ProcessandoMusica</text><line style="stroke:#A80036;stroke-width:1.5;" x1="126.5" x2="253.5" y1="244.9638" y2="244.9638"/><!--MD5=[ad23146357bdd208a2f074f6030d17e8]
class DecodificadorTexto--><rect codeLine="14" fill="#FEFECE" filter="url(#fpygfs9tmjxas)" height="62.9819" id="DecodificadorTexto" style="stroke:#A80036;stroke-width:1.5;" width="166" x="290" y="182.5"/><ellipse cx="316.25" cy="198.5" fill="#ADD1B2" rx="11" ry="11" style="stroke:#A80036;stroke-width:1.0;"/><path d="M315.7188,205.4219 Q313.9688,205.4219 312.8281,204.6875 Q311.7031,203.9375 311.1406,202.5938 Q310.5938,201.2344 310.5938,199.4375 Q310.5938,197.4063 311.25,195.9531 Q311.9063,194.5 313.1875,193.7188 Q314.4688,192.9375 316.3438,192.9375 Q317.2344,192.9375 317.9063,193.125 Q318.5781,193.2969 319.2656,193.6406 L318.4531,195.6563 Q317.8281,195.3438 317.2813,195.2188 Q316.75,195.0938 316.2656,195.0938 Q315.0938,195.0938 314.3906,195.625 Q313.6875,196.1563 313.3906,197.1094 Q313.0938,198.0625 313.0938,199.3281 Q313.0938,201.3438 313.8125,202.3125 Q314.5313,203.2656 316.125,203.2656 Q316.7188,203.2656 317.3438,203.1094 Q317.9688,202.9531 318.7969,202.5781 L318.7969,204.7969 Q318.0625,205.1094 317.2656,205.2656 Q316.4844,205.4219 315.7188,205.4219 Z " fill="#000000"/><text fill="#000000" font-family="sans-serif" font-size="12" lengthAdjust="spacing" textLength="109" x="332.75" y="203.156">DecodificadorTexto</text><line style="stroke:#A80036;stroke-width:1.5;" x1="291" x2="455" y1="214.5" y2="214.5"/><line style="stroke:#A80036;stroke-width:1.5;" x1="291" x2="455" y1="222.5" y2="222.5"/><ellipse cx="301" cy="233.5" fill="#84BE84" rx="3" ry="3" style="stroke:#038048;stroke-width:1.0;"/><text fill="#000000" font-family="sans-serif" font-size="11" lengthAdjust="spacing" textLength="140" x="310" y="238.2589">traduzTexto(String):Musica</text><!--MD5=[1779cf4dea73243dda24388918ce614c]
class TradutorTextoComando--><rect codeLine="18" fill="#FEFECE" filter="url(#fpygfs9tmjxas)" height="62.9819" id="TradutorTextoComando" style="stroke:#A80036;stroke-width:1.5;" width="162" x="109" y="343"/><ellipse cx="124" cy="359" fill="#B4A7E5" rx="11" ry="11" style="stroke:#A80036;stroke-width:1.0;"/><path d="M120.0313,365.5 L120.0313,363.7969 L122.3906,363.5313 L122.3906,355.3281 L120.0313,355.0625 L120.0313,353.3594 L127.1719,353.3594 L127.1719,355.0625 L124.75,355.3281 L124.75,363.5313 L127.1719,363.7969 L127.1719,365.5 L120.0313,365.5 Z " fill="#000000"/><text fill="#000000" font-family="sans-serif" font-size="12" font-style="italic" lengthAdjust="spacing" textLength="130" x="138" y="363.656">TradutorTextoComando</text><line style="stroke:#A80036;stroke-width:1.5;" x1="110" x2="270" y1="375" y2="375"/><line style="stroke:#A80036;stroke-width:1.5;" x1="110" x2="270" y1="383" y2="383"/><ellipse cx="120" cy="394" fill="#84BE84" rx="3" ry="3" style="stroke:#038048;stroke-width:1.0;"/><text fill="#000000" font-family="sans-serif" font-size="11" lengthAdjust="spacing" textLength="124" x="129" y="398.7589">traduz(String):comando</text><!--MD5=[26e688f3331c1a80bfb7f45feb153195]
class TradutorTextoParaComando--><rect codeLine="22" fill="#FEFECE" filter="url(#fpygfs9tmjxas)" height="48" id="TradutorTextoParaComando" style="stroke:#A80036;stroke-width:1.5;" width="192" x="7" y="556"/><ellipse cx="22" cy="572" fill="#ADD1B2" rx="11" ry="11" style="stroke:#A80036;stroke-width:1.0;"/><path d="M21.4688,578.9219 Q19.7188,578.9219 18.5781,578.1875 Q17.4531,577.4375 16.8906,576.0938 Q16.3438,574.7344 16.3438,572.9375 Q16.3438,570.9063 17,569.4531 Q17.6563,568 18.9375,567.2188 Q20.2188,566.4375 22.0938,566.4375 Q22.9844,566.4375 23.6563,566.625 Q24.3281,566.7969 25.0156,567.1406 L24.2031,569.1563 Q23.5781,568.8438 23.0313,568.7188 Q22.5,568.5938 22.0156,568.5938 Q20.8438,568.5938 20.1406,569.125 Q19.4375,569.6563 19.1406,570.6094 Q18.8438,571.5625 18.8438,572.8281 Q18.8438,574.8438 19.5625,575.8125 Q20.2813,576.7656 21.875,576.7656 Q22.4688,576.7656 23.0938,576.6094 Q23.7188,576.4531 24.5469,576.0781 L24.5469,578.2969 Q23.8125,578.6094 23.0156,578.7656 Q22.2344,578.9219 21.4688,578.9219 Z " fill="#000000"/><text fill="#000000" font-family="sans-serif" font-size="12" lengthAdjust="spacing" textLength="160" x="36" y="576.656">TradutorTextoParaComando</text><line style="stroke:#A80036;stroke-width:1.5;" x1="8" x2="198" y1="588" y2="588"/><line style="stroke:#A80036;stroke-width:1.5;" x1="8" x2="198" y1="596" y2="596"/><!--MD5=[815aba036e14179ebf1afa7ee6e3a016]
class ControladorMusical--><rect codeLine="24" fill="#FEFECE" filter="url(#fpygfs9tmjxas)" height="62.9819" id="ControladorMusical" style="stroke:#A80036;stroke-width:1.5;" width="144" x="491" y="182.5"/><ellipse cx="506.9" cy="198.5" fill="#ADD1B2" rx="11" ry="11" style="stroke:#A80036;stroke-width:1.0;"/><path d="M506.3688,205.4219 Q504.6188,205.4219 503.4781,204.6875 Q502.3531,203.9375 501.7906,202.5938 Q501.2438,201.2344 501.2438,199.4375 Q501.2438,197.4063 501.9,195.9531 Q502.5563,194.5 503.8375,193.7188 Q505.1188,192.9375 506.9938,192.9375 Q507.8844,192.9375 508.5563,193.125 Q509.2281,193.2969 509.9156,193.6406 L509.1031,195.6563 Q508.4781,195.3438 507.9313,195.2188 Q507.4,195.0938 506.9156,195.0938 Q505.7438,195.0938 505.0406,195.625 Q504.3375,196.1563 504.0406,197.1094 Q503.7438,198.0625 503.7438,199.3281 Q503.7438,201.3438 504.4625,202.3125 Q505.1813,203.2656 506.775,203.2656 Q507.3688,203.2656 507.9938,203.1094 Q508.6188,202.9531 509.4469,202.5781 L509.4469,204.7969 Q508.7125,205.1094 507.9156,205.2656 Q507.1344,205.4219 506.3688,205.4219 Z " fill="#000000"/><text fill="#000000" font-family="sans-serif" font-size="12" lengthAdjust="spacing" textLength="110" x="521.1" y="203.156">ControladorMusical</text><line style="stroke:#A80036;stroke-width:1.5;" x1="492" x2="634" y1="214.5" y2="214.5"/><line style="stroke:#A80036;stroke-width:1.5;" x1="492" x2="634" y1="222.5" y2="222.5"/><ellipse cx="502" cy="233.5" fill="#84BE84" rx="3" ry="3" style="stroke:#038048;stroke-width:1.0;"/><text fill="#000000" font-family="sans-serif" font-size="11" lengthAdjust="spacing" textLength="118" x="511" y="238.2589">executaMusica(Musica)</text><!--MD5=[3947fcfebebf3a380209f6200e77d224]
class AdaptadorMusical--><rect codeLine="28" fill="#FEFECE" filter="url(#fpygfs9tmjxas)" height="122.9094" id="AdaptadorMusical" style="stroke:#A80036;stroke-width:1.5;" width="135" x="495.5" y="313"/><ellipse cx="512.75" cy="329" fill="#B4A7E5" rx="11" ry="11" style="stroke:#A80036;stroke-width:1.0;"/><path d="M508.7813,335.5 L508.7813,333.7969 L511.1406,333.5313 L511.1406,325.3281 L508.7813,325.0625 L508.7813,323.3594 L515.9219,323.3594 L515.9219,325.0625 L513.5,325.3281 L513.5,333.5313 L515.9219,333.7969 L515.9219,335.5 L508.7813,335.5 Z " fill="#000000"/><text fill="#000000" font-family="sans-serif" font-size="12" font-style="italic" lengthAdjust="spacing" textLength="98" x="527.25" y="333.656">AdaptadorMusical</text><line style="stroke:#A80036;stroke-width:1.5;" x1="496.5" x2="629.5" y1="345" y2="345"/><line style="stroke:#A80036;stroke-width:1.5;" x1="496.5" x2="629.5" y1="353" y2="353"/><ellipse cx="506.5" cy="364" fill="#84BE84" rx="3" ry="3" style="stroke:#038048;stroke-width:1.0;"/><text fill="#000000" font-family="sans-serif" font-size="11" lengthAdjust="spacing" textLength="109" x="515.5" y="368.7589">tocarNota(Comando)</text><ellipse cx="506.5" cy="378.9819" fill="#84BE84" rx="3" ry="3" style="stroke:#038048;stroke-width:1.0;"/><text fill="#000000" font-family="sans-serif" font-size="11" lengthAdjust="spacing" textLength="91" x="515.5" y="383.7408">aumentarOitava()</text><ellipse cx="506.5" cy="393.9638" fill="#84BE84" rx="3" ry="3" style="stroke:#038048;stroke-width:1.0;"/><text fill="#000000" font-family="sans-serif" font-size="11" lengthAdjust="spacing" textLength="78" x="515.5" y="398.7227">reduzirOitava()</text><ellipse cx="506.5" cy="408.9457" fill="#84BE84" rx="3" ry="3" style="stroke:#038048;stroke-width:1.0;"/><text fill="#000000" font-family="sans-serif" font-size="11" lengthAdjust="spacing" textLength="97" x="515.5" y="413.7046">aumentarVolume()</text><ellipse cx="506.5" cy="423.9276" fill="#84BE84" rx="3" ry="3" style="stroke:#038048;stroke-width:1.0;"/><text fill="#000000" font-family="sans-serif" font-size="11" lengthAdjust="spacing" textLength="84" x="515.5" y="428.6865">reduzirVolume()</text><!--MD5=[20a2f73b19b4899378588d8d90d683d2]
class AdaptadorJFugue--><rect codeLine="36" fill="#FEFECE" filter="url(#fpygfs9tmjxas)" height="107.9276" id="AdaptadorJFugue" style="stroke:#A80036;stroke-width:1.5;" width="128" x="499" y="526"/><ellipse cx="514" cy="542" fill="#ADD1B2" rx="11" ry="11" style="stroke:#A80036;stroke-width:1.0;"/><path d="M513.4688,548.9219 Q511.7188,548.9219 510.5781,548.1875 Q509.4531,547.4375 508.8906,546.0938 Q508.3438,544.7344 508.3438,542.9375 Q508.3438,540.9063 509,539.4531 Q509.6563,538 510.9375,537.2188 Q512.2188,536.4375 514.0938,536.4375 Q514.9844,536.4375 515.6563,536.625 Q516.3281,536.7969 517.0156,537.1406 L516.2031,539.1563 Q515.5781,538.8438 515.0313,538.7188 Q514.5,538.5938 514.0156,538.5938 Q512.8438,538.5938 512.1406,539.125 Q511.4375,539.6563 511.1406,540.6094 Q510.8438,541.5625 510.8438,542.8281 Q510.8438,544.8438 511.5625,545.8125 Q512.2813,546.7656 513.875,546.7656 Q514.4688,546.7656 515.0938,546.6094 Q515.7188,546.4531 516.5469,546.0781 L516.5469,548.2969 Q515.8125,548.6094 515.0156,548.7656 Q514.2344,548.9219 513.4688,548.9219 Z " fill="#000000"/><text fill="#000000" font-family="sans-serif" font-size="12" lengthAdjust="spacing" textLength="96" x="528" y="546.656">AdaptadorJFugue</text><line style="stroke:#A80036;stroke-width:1.5;" x1="500" x2="626" y1="558" y2="558"/><rect fill="none" height="6" style="stroke:#C82930;stroke-width:1.0;" width="6" x="507" y="566"/><text fill="#000000" font-family="sans-serif" font-size="11" lengthAdjust="spacing" textLength="24" x="519" y="573.7589">BPM</text><rect fill="none" height="6" style="stroke:#C82930;stroke-width:1.0;" width="6" x="507" y="580.9819"/><text fill="#000000" font-family="sans-serif" font-size="11" lengthAdjust="spacing" textLength="34" x="519" y="588.7408">Oitava</text><rect fill="none" height="6" style="stroke:#C82930;stroke-width:1.0;" width="6" x="507" y="595.9638"/><text fill="#000000" font-family="sans-serif" font-size="11" lengthAdjust="spacing" textLength="40" x="519" y="603.7227">Volume</text><rect fill="none" height="6" style="stroke:#C82930;stroke-width:1.0;" width="6" x="507" y="610.9457"/><text fill="#000000" font-family="sans-serif" font-size="11" lengthAdjust="spacing" textLength="66" x="519" y="618.7046">Instrumento</text><line style="stroke:#A80036;stroke-width:1.5;" x1="500" x2="626" y1="625.9276" y2="625.9276"/><!--MD5=[f549f87ec26c612c42cbcdc1340cf410]
class TradutorAdaptador--><rect codeLine="43" fill="#FEFECE" filter="url(#fpygfs9tmjxas)" height="62.9819" id="TradutorAdaptador" style="stroke:#A80036;stroke-width:1.5;" width="232" x="346" y="739"/><ellipse cx="404.75" cy="755" fill="#B4A7E5" rx="11" ry="11" style="stroke:#A80036;stroke-width:1.0;"/><path d="M400.7813,761.5 L400.7813,759.7969 L403.1406,759.5313 L403.1406,751.3281 L400.7813,751.0625 L400.7813,749.3594 L407.9219,749.3594 L407.9219,751.0625 L405.5,751.3281 L405.5,759.5313 L407.9219,759.7969 L407.9219,761.5 L400.7813,761.5 Z " fill="#000000"/><text fill="#000000" font-family="sans-serif" font-size="12" font-style="italic" lengthAdjust="spacing" textLength="106" x="425.25" y="759.656">TradutorAdaptador</text><line style="stroke:#A80036;stroke-width:1.5;" x1="347" x2="577" y1="771" y2="771"/><line style="stroke:#A80036;stroke-width:1.5;" x1="347" x2="577" y1="779" y2="779"/><ellipse cx="357" cy="790" fill="#84BE84" rx="3" ry="3" style="stroke:#038048;stroke-width:1.0;"/><text fill="#000000" font-family="sans-serif" font-size="11" lengthAdjust="spacing" textLength="206" x="366" y="794.7589">traduzParaAdaptador(Comando):String</text><!--MD5=[03372b0263af18838c083ca65e435dfd]
class TradutorJFugue--><rect codeLine="47" fill="#FEFECE" filter="url(#fpygfs9tmjxas)" height="48" id="TradutorJFugue" style="stroke:#A80036;stroke-width:1.5;" width="118" x="403" y="877"/><ellipse cx="418" cy="893" fill="#ADD1B2" rx="11" ry="11" style="stroke:#A80036;stroke-width:1.0;"/><path d="M417.4688,899.9219 Q415.7188,899.9219 414.5781,899.1875 Q413.4531,898.4375 412.8906,897.0938 Q412.3438,895.7344 412.3438,893.9375 Q412.3438,891.9063 413,890.4531 Q413.6563,889 414.9375,888.2188 Q416.2188,887.4375 418.0938,887.4375 Q418.9844,887.4375 419.6563,887.625 Q420.3281,887.7969 421.0156,888.1406 L420.2031,890.1563 Q419.5781,889.8438 419.0313,889.7188 Q418.5,889.5938 418.0156,889.5938 Q416.8438,889.5938 416.1406,890.125 Q415.4375,890.6563 415.1406,891.6094 Q414.8438,892.5625 414.8438,893.8281 Q414.8438,895.8438 415.5625,896.8125 Q416.2813,897.7656 417.875,897.7656 Q418.4688,897.7656 419.0938,897.6094 Q419.7188,897.4531 420.5469,897.0781 L420.5469,899.2969 Q419.8125,899.6094 419.0156,899.7656 Q418.2344,899.9219 417.4688,899.9219 Z " fill="#000000"/><text fill="#000000" font-family="sans-serif" font-size="12" lengthAdjust="spacing" textLength="86" x="432" y="897.656">TradutorJFugue</text><line style="stroke:#A80036;stroke-width:1.5;" x1="404" x2="520" y1="909" y2="909"/><line style="stroke:#A80036;stroke-width:1.5;" x1="404" x2="520" y1="917" y2="917"/><!--MD5=[60f538da2e3d3c2e5a13d43455efb760]
class Instrumento--><rect codeLine="51" fill="#FEFECE" filter="url(#fpygfs9tmjxas)" height="92.9457" id="Instrumento" style="stroke:#A80036;stroke-width:1.5;" width="101" x="613.5" y="724"/><ellipse cx="628.5" cy="740" fill="#EB937F" rx="11" ry="11" style="stroke:#A80036;stroke-width:1.0;"/><path d="M624.8594,746.5 L624.8594,734.3594 L632.5156,734.3594 L632.5156,736.4844 L627.2344,736.4844 L627.2344,739.1406 L632.25,739.1406 L632.25,741.2656 L627.2344,741.2656 L627.2344,744.375 L632.5156,744.375 L632.5156,746.5 L624.8594,746.5 Z " fill="#000000"/><text fill="#000000" font-family="sans-serif" font-size="12" lengthAdjust="spacing" textLength="69" x="642.5" y="744.656">Instrumento</text><line style="stroke:#A80036;stroke-width:1.5;" x1="614.5" x2="713.5" y1="756" y2="756"/><rect fill="none" height="6" style="stroke:#C82930;stroke-width:1.0;" width="6" x="621.5" y="764"/><text fill="#000000" font-family="sans-serif" font-size="11" lengthAdjust="spacing" textLength="37" x="633.5" y="771.7589">bateria</text><rect fill="none" height="6" style="stroke:#C82930;stroke-width:1.0;" width="6" x="621.5" y="778.9819"/><text fill="#000000" font-family="sans-serif" font-size="11" lengthAdjust="spacing" textLength="30" x="633.5" y="786.7408">piano</text><rect fill="none" height="6" style="stroke:#C82930;stroke-width:1.0;" width="6" x="621.5" y="793.9638"/><text fill="#000000" font-family="sans-serif" font-size="11" lengthAdjust="spacing" textLength="49" x="633.5" y="801.7227">guiatarra</text><line style="stroke:#A80036;stroke-width:1.5;" x1="614.5" x2="713.5" y1="808.9457" y2="808.9457"/><!--MD5=[51f0781105b9cf5fcba3c6a2af676f78]
class Comando--><rect codeLine="57" fill="#FEFECE" filter="url(#fpygfs9tmjxas)" height="167.8551" id="Comando" style="stroke:#A80036;stroke-width:1.5;" width="86" x="234" y="496"/><ellipse cx="249" cy="512" fill="#EB937F" rx="11" ry="11" style="stroke:#A80036;stroke-width:1.0;"/><path d="M245.3594,518.5 L245.3594,506.3594 L253.0156,506.3594 L253.0156,508.4844 L247.7344,508.4844 L247.7344,511.1406 L252.75,511.1406 L252.75,513.2656 L247.7344,513.2656 L247.7344,516.375 L253.0156,516.375 L253.0156,518.5 L245.3594,518.5 Z " fill="#000000"/><text fill="#000000" font-family="sans-serif" font-size="12" lengthAdjust="spacing" textLength="54" x="263" y="516.656">Comando</text><line style="stroke:#A80036;stroke-width:1.5;" x1="235" x2="319" y1="528" y2="528"/><ellipse cx="245" cy="539" rx="3" ry="3" style="stroke:#038048;stroke-width:1.0;fill:none;"/><text fill="#000000" font-family="sans-serif" font-size="11" lengthAdjust="spacing" textLength="14" x="254" y="543.7589">do</text><ellipse cx="245" cy="553.9819" rx="3" ry="3" style="stroke:#038048;stroke-width:1.0;fill:none;"/><text fill="#000000" font-family="sans-serif" font-size="11" lengthAdjust="spacing" textLength="11" x="254" y="558.7408">re</text><ellipse cx="245" cy="568.9638" rx="3" ry="3" style="stroke:#038048;stroke-width:1.0;fill:none;"/><text fill="#000000" font-family="sans-serif" font-size="11" lengthAdjust="spacing" textLength="13" x="254" y="573.7227">mi</text><ellipse cx="245" cy="583.9457" rx="3" ry="3" style="stroke:#038048;stroke-width:1.0;fill:none;"/><text fill="#000000" font-family="sans-serif" font-size="11" lengthAdjust="spacing" textLength="10" x="254" y="588.7046">fa</text><ellipse cx="245" cy="598.9276" rx="3" ry="3" style="stroke:#038048;stroke-width:1.0;fill:none;"/><text fill="#000000" font-family="sans-serif" font-size="11" lengthAdjust="spacing" textLength="15" x="254" y="603.6865">sol</text><ellipse cx="245" cy="613.9094" rx="3" ry="3" style="stroke:#038048;stroke-width:1.0;fill:none;"/><text fill="#000000" font-family="sans-serif" font-size="11" lengthAdjust="spacing" textLength="9" x="254" y="618.6684">la</text><ellipse cx="245" cy="628.8913" rx="3" ry="3" style="stroke:#038048;stroke-width:1.0;fill:none;"/><text fill="#000000" font-family="sans-serif" font-size="11" lengthAdjust="spacing" textLength="8" x="254" y="633.6502">si</text><text fill="#000000" font-family="sans-serif" font-size="11" lengthAdjust="spacing" textLength="9" x="254" y="648.6321">...</text><line style="stroke:#A80036;stroke-width:1.5;" x1="235" x2="319" y1="655.8551" y2="655.8551"/><!--MD5=[2927a630b13e88512b2d3b16c23c7e23]
class Musica--><rect codeLine="68" fill="#FEFECE" filter="url(#fpygfs9tmjxas)" height="62.9819" id="Musica" style="stroke:#A80036;stroke-width:1.5;" width="148" x="306" y="343"/><ellipse cx="355.75" cy="359" fill="#ADD1B2" rx="11" ry="11" style="stroke:#A80036;stroke-width:1.0;"/><path d="M355.2188,365.9219 Q353.4688,365.9219 352.3281,365.1875 Q351.2031,364.4375 350.6406,363.0938 Q350.0938,361.7344 350.0938,359.9375 Q350.0938,357.9063 350.75,356.4531 Q351.4063,355 352.6875,354.2188 Q353.9688,353.4375 355.8438,353.4375 Q356.7344,353.4375 357.4063,353.625 Q358.0781,353.7969 358.7656,354.1406 L357.9531,356.1563 Q357.3281,355.8438 356.7813,355.7188 Q356.25,355.5938 355.7656,355.5938 Q354.5938,355.5938 353.8906,356.125 Q353.1875,356.6563 352.8906,357.6094 Q352.5938,358.5625 352.5938,359.8281 Q352.5938,361.8438 353.3125,362.8125 Q354.0313,363.7656 355.625,363.7656 Q356.2188,363.7656 356.8438,363.6094 Q357.4688,363.4531 358.2969,363.0781 L358.2969,365.2969 Q357.5625,365.6094 356.7656,365.7656 Q355.9844,365.9219 355.2188,365.9219 Z " fill="#000000"/><text fill="#000000" font-family="sans-serif" font-size="12" lengthAdjust="spacing" textLength="40" x="376.25" y="363.656">Musica</text><line style="stroke:#A80036;stroke-width:1.5;" x1="307" x2="453" y1="375" y2="375"/><rect fill="none" height="6" style="stroke:#C82930;stroke-width:1.0;" width="6" x="314" y="383"/><text fill="#000000" font-family="sans-serif" font-size="11" lengthAdjust="spacing" textLength="122" x="326" y="390.7589">sequenciaDeComandos</text><line style="stroke:#A80036;stroke-width:1.5;" x1="307" x2="453" y1="397.9819" y2="397.9819"/><!--MD5=[b65eb35e67c12f80dde7b1f5192fa4e5]
reverse link TradutorTextoComando to TradutorTextoParaComando--><path d="M168.81,425.06 C151.05,466.61 126.48,524.07 112.95,555.73 " fill="none" id="TradutorTextoComando-backto-TradutorTextoParaComando" style="stroke:#A80036;stroke-width:1.0;stroke-dasharray:7.0,7.0;"/><polygon fill="none" points="162.49,422.05,176.79,406.41,175.36,427.55,162.49,422.05" style="stroke:#A80036;stroke-width:1.0;"/><!--MD5=[5fd119549db5b76968d1fa7f6bc1a1f0]
reverse link AdaptadorMusical to AdaptadorJFugue--><path d="M563,456.11 C563,479.59 563,504.65 563,525.98 " fill="none" id="AdaptadorMusical-backto-AdaptadorJFugue" style="stroke:#A80036;stroke-width:1.0;stroke-dasharray:7.0,7.0;"/><polygon fill="none" points="556,456.01,563,436.01,570,456.01,556,456.01" style="stroke:#A80036;stroke-width:1.0;"/><!--MD5=[8641968d1feeec22deeb3530b4067c26]
reverse link TradutorAdaptador to TradutorJFugue--><path d="M462,822.44 C462,841.21 462,861.57 462,876.71 " fill="none" id="TradutorAdaptador-backto-TradutorJFugue" style="stroke:#A80036;stroke-width:1.0;stroke-dasharray:7.0,7.0;"/><polygon fill="none" points="455,822.28,462,802.28,469,822.28,455,822.28" style="stroke:#A80036;stroke-width:1.0;"/><!--MD5=[076ed8749e941f7e5fad57c9618eb998]
link ControladorDeGui to DecodificadorTexto--><path codeLine="73" d="M373,115.24 C373,135.73 373,158.62 373,177.1 " fill="none" id="ControladorDeGui-to-DecodificadorTexto" style="stroke:#A80036;stroke-width:1.0;"/><polygon fill="#A80036" points="373,182.19,377,173.19,373,177.19,369,173.19,373,182.19" style="stroke:#A80036;stroke-width:1.0;"/><!--MD5=[4e79ad5a430f706b8a7702d8768360a0]
link ControladorDeGui to ControladorMusical--><path codeLine="74" d="M439.72,115.02 C466.51,136.31 496.59,160.22 520.34,179.09 " fill="none" id="ControladorDeGui-to-ControladorMusical" style="stroke:#A80036;stroke-width:1.0;"/><polygon fill="#A80036" points="524.39,182.32,519.8376,173.5864,520.4773,179.207,514.8567,179.8467,524.39,182.32" style="stroke:#A80036;stroke-width:1.0;"/><!--MD5=[7fdd772908b8c3c928ae37a7efadeb59]
link DecodificadorTexto to TradutorTextoComando--><path codeLine="75" d="M337.72,245.56 C306.68,272.44 261.55,311.53 229.35,339.42 " fill="none" id="DecodificadorTexto-to-TradutorTextoComando" style="stroke:#A80036;stroke-width:1.0;"/><polygon fill="#A80036" points="225.49,342.76,234.9097,339.8843,229.267,339.4837,229.6676,333.8411,225.49,342.76" style="stroke:#A80036;stroke-width:1.0;"/><!--MD5=[dc0470bf4ec233f20c7c20b737be2079]
link DecodificadorTexto to Musica--><path codeLine="76" d="M374.35,245.56 C375.51,271.9 377.19,309.95 378.42,337.71 " fill="none" id="DecodificadorTexto-to-Musica" style="stroke:#A80036;stroke-width:1.0;"/><polygon fill="#A80036" points="378.64,342.76,382.2248,333.5867,378.4117,337.7652,374.2332,333.9521,378.64,342.76" style="stroke:#A80036;stroke-width:1.0;"/><!--MD5=[0d3daf707f0727c8f6208f40d95f6c89]
link ControladorMusical to AdaptadorMusical--><path codeLine="77" d="M563,245.56 C563,263.22 563,286.14 563,307.69 " fill="none" id="ControladorMusical-to-AdaptadorMusical" style="stroke:#A80036;stroke-width:1.0;"/><polygon fill="#A80036" points="563,312.84,567,303.84,563,307.84,559,303.84,563,312.84" style="stroke:#A80036;stroke-width:1.0;"/><!--MD5=[b32da690e438aa28f7a9d3c66551d285]
link TradutorTextoComando to Comando--><path codeLine="78" d="M203.21,406.41 C212.87,428.99 226.48,460.82 239.38,491.01 " fill="none" id="TradutorTextoComando-to-Comando" style="stroke:#A80036;stroke-width:1.0;"/><polygon fill="#A80036" points="241.45,495.84,241.5813,485.992,239.4804,491.2443,234.2281,489.1434,241.45,495.84" style="stroke:#A80036;stroke-width:1.0;"/><!--MD5=[570e8251817d076629998f888b591c14]
link ControladorDeGui to estadoGui--><path codeLine="79" d="M308.74,115.02 C286.25,133.58 261.34,154.14 240.16,171.61 " fill="none" id="ControladorDeGui-to-estadoGui" style="stroke:#A80036;stroke-width:1.0;"/><polygon fill="#A80036" points="236.26,174.83,245.7464,172.1828,240.1151,171.646,240.652,166.0146,236.26,174.83" style="stroke:#A80036;stroke-width:1.0;"/><!--MD5=[9bd65c19b445a9e48b025a3bf08fc8d4]
link AdaptadorJFugue to Instrumento--><path codeLine="80" d="M591.4,634.01 C605.74,660.77 623.05,693.06 637.16,719.41 " fill="none" id="AdaptadorJFugue-to-Instrumento" style="stroke:#A80036;stroke-width:1.0;"/><polygon fill="#A80036" points="639.58,723.92,638.8445,714.0986,637.2138,719.5154,631.797,717.8846,639.58,723.92" style="stroke:#A80036;stroke-width:1.0;"/><!--MD5=[b9a0f738aa170f99b10fad7721a5c344]
link AdaptadorJFugue to TradutorAdaptador--><path codeLine="81" d="M534.6,634.01 C517.37,666.16 495.88,706.27 480.76,734.49 " fill="none" id="AdaptadorJFugue-to-TradutorAdaptador" style="stroke:#A80036;stroke-width:1.0;"/><polygon fill="#A80036" points="478.39,738.91,486.1578,732.8551,480.7452,734.4994,479.1008,729.0868,478.39,738.91" style="stroke:#A80036;stroke-width:1.0;"/><!--MD5=[123797b5a230e46aa2b13fddc8954fe9]
@startuml classes

class ControladorDeGui{
    - estadoGui
    + entraTexto():String
    + abrir()
    + fechar()
}

enum estadoGui{
    + Standby
    + ProcessandoMusica
}

class DecodificadorTexto{
    + traduzTexto(String):Musica
}

interface TradutorTextoComando{
    + traduz(String):comando
}

class TradutorTextoParaComando implements TradutorTextoComando{}

class ControladorMusical{
    + executaMusica(Musica)
}

interface AdaptadorMusical{
    + tocarNota(Comando)
    + aumentarOitava()
    + reduzirOitava()
    + aumentarVolume()
    + reduzirVolume()
}

class AdaptadorJFugue implements AdaptadorMusical{
    - BPM
    - Oitava
    - Volume
    - Instrumento
}

interface TradutorAdaptador{
    + traduzParaAdaptador(Comando):String
}

class TradutorJFugue implements TradutorAdaptador{

}

enum Instrumento{
    - bateria
    - piano
    - guiatarra
}

enum Comando{
    + do
    + re
    + mi
    + fa
    + sol
    + la
    + si
    ...
}

class Musica{
    - sequenciaDeComandos
}


ControladorDeGui - -> DecodificadorTexto
ControladorDeGui - -> ControladorMusical
DecodificadorTexto - -> TradutorTextoComando
DecodificadorTexto - -> Musica
ControladorMusical - -> AdaptadorMusical
TradutorTextoComando - -> Comando
ControladorDeGui - -> estadoGui
AdaptadorJFugue - -> Instrumento
AdaptadorJFugue - -> TradutorAdaptador


@enduml

PlantUML version 1.2022.0(Tue Jan 11 13:16:42 BRT 2022)
(GPL source distribution)
Java Runtime: OpenJDK Runtime Environment
JVM: OpenJDK 64-Bit Server VM
Default Encoding: UTF-8
Language: en
Country: US
--></g></svg>