<?xml version="1.0" encoding="UTF-8" standalone="no"?><svg xmlns="http://www.w3.org/2000/svg" xmlns:xlink="http://www.w3.org/1999/xlink" contentScriptType="application/ecmascript" contentStyleType="text/css" height="1196px" preserveAspectRatio="none" style="width:1285px;height:1196px;background:#FFFFFF;" version="1.1" viewBox="0 0 1285 1196" width="1285px" zoomAndPan="magnify"><defs><filter height="300%" id="f19cy6iuaj01fo" width="300%" x="-1" y="-1"><feGaussianBlur result="blurOut" stdDeviation="2.0"/><feColorMatrix in="blurOut" result="blurOut2" type="matrix" values="0 0 0 0 0 0 0 0 0 0 0 0 0 0 0 0 0 0 .4 0"/><feOffset dx="4.0" dy="4.0" in="blurOut2" result="blurOut3"/><feBlend in="SourceGraphic" in2="blurOut3" mode="normal"/></filter></defs><g><!--MD5=[cc7199de7d3e82d413e313b3906f7f53]
class Orquestrador--><rect codeLine="2" fill="#FEFECE" filter="url(#f19cy6iuaj01fo)" height="99.2188" id="Orquestrador" style="stroke:#A80036;stroke-width:1.5;" width="186" x="604" y="287"/><ellipse cx="650.75" cy="303" fill="#ADD1B2" rx="11" ry="11" style="stroke:#A80036;stroke-width:1.0;"/><path d="M653.7188,308.6406 Q653.1406,308.9375 652.5,309.0781 Q651.8594,309.2344 651.1563,309.2344 Q648.6563,309.2344 647.3281,307.5938 Q646.0156,305.9375 646.0156,302.8125 Q646.0156,299.6875 647.3281,298.0313 Q648.6563,296.375 651.1563,296.375 Q651.8594,296.375 652.5,296.5313 Q653.1563,296.6875 653.7188,296.9844 L653.7188,299.7031 Q653.0938,299.125 652.5,298.8594 Q651.9063,298.5781 651.2813,298.5781 Q649.9375,298.5781 649.25,299.6563 Q648.5625,300.7188 648.5625,302.8125 Q648.5625,304.9063 649.25,305.9844 Q649.9375,307.0469 651.2813,307.0469 Q651.9063,307.0469 652.5,306.7813 Q653.0938,306.5 653.7188,305.9219 L653.7188,308.6406 Z " fill="#000000"/><text fill="#000000" font-family="sans-serif" font-size="12" lengthAdjust="spacing" textLength="84" x="671.25" y="307.1543">Orquestrador</text><line style="stroke:#A80036;stroke-width:1.5;" x1="605" x2="789" y1="319" y2="319"/><rect fill="none" height="6" style="stroke:#C82930;stroke-width:1.0;" width="6" x="612" y="327"/><text fill="#000000" font-family="sans-serif" font-size="11" lengthAdjust="spacing" textLength="108" x="624" y="333.2104">DecodificadorTexto</text><rect fill="none" height="6" style="stroke:#C82930;stroke-width:1.0;" width="6" x="612" y="339.8047"/><text fill="#000000" font-family="sans-serif" font-size="11" lengthAdjust="spacing" textLength="109" x="624" y="346.0151">ControladorMusical</text><line style="stroke:#A80036;stroke-width:1.5;" x1="605" x2="789" y1="352.6094" y2="352.6094"/><ellipse cx="615" cy="363.6094" fill="#84BE84" rx="3" ry="3" style="stroke:#038048;stroke-width:1.0;"/><text fill="#000000" font-family="sans-serif" font-size="11" lengthAdjust="spacing" textLength="160" x="624" y="366.8198">orquestra( String , Boolean)</text><ellipse cx="615" cy="376.4141" fill="#84BE84" rx="3" ry="3" style="stroke:#038048;stroke-width:1.0;"/><text fill="#000000" font-family="sans-serif" font-size="11" lengthAdjust="spacing" textLength="147" x="624" y="379.6245">definirInstrumento(String)</text><!--MD5=[713bb781b1b579324fb36ad0db6385cf]
class Interface--><rect codeLine="9" fill="#FEFECE" filter="url(#f19cy6iuaj01fo)" height="99.2188" id="Interface" style="stroke:#A80036;stroke-width:1.5;" width="195" x="599.5" y="7"/><ellipse cx="664.25" cy="23" fill="#A9DCDF" rx="11" ry="11" style="stroke:#A80036;stroke-width:1.0;"/><path d="M664.3594,18.3438 L663.2031,23.4219 L665.5313,23.4219 L664.3594,18.3438 Z M662.875,16.1094 L665.8594,16.1094 L669.2188,28.5 L666.7656,28.5 L666,25.4375 L662.7188,25.4375 L661.9688,28.5 L659.5313,28.5 L662.875,16.1094 Z " fill="#000000"/><text fill="#000000" font-family="sans-serif" font-size="12" font-style="italic" lengthAdjust="spacing" textLength="57" x="684.75" y="27.1543">Interface</text><line style="stroke:#A80036;stroke-width:1.5;" x1="600.5" x2="793.5" y1="39" y2="39"/><line style="stroke:#A80036;stroke-width:1.5;" x1="600.5" x2="793.5" y1="47" y2="47"/><ellipse cx="610.5" cy="58" fill="#84BE84" rx="3" ry="3" style="stroke:#038048;stroke-width:1.0;"/><text fill="#000000" font-family="sans-serif" font-size="11" lengthAdjust="spacing" textLength="95" x="619.5" y="61.2104">getTexto():String</text><ellipse cx="610.5" cy="70.8047" fill="#84BE84" rx="3" ry="3" style="stroke:#038048;stroke-width:1.0;"/><text fill="#000000" font-family="sans-serif" font-size="11" lengthAdjust="spacing" textLength="169" x="619.5" y="74.0151">abrirGerenciadorDeArquivos()</text><rect fill="#F24D5C" height="6" style="stroke:#C82930;stroke-width:1.0;" width="6" x="607.5" y="80.6094"/><text fill="#000000" font-family="sans-serif" font-size="11" lengthAdjust="spacing" textLength="159" x="619.5" y="86.8198">checkBoxMarcada():Boolean</text><rect fill="#F24D5C" height="6" style="stroke:#C82930;stroke-width:1.0;" width="6" x="607.5" y="93.4141"/><text fill="#000000" font-family="sans-serif" font-size="11" lengthAdjust="spacing" textLength="114" x="619.5" y="99.6245">getArquivoDeTexto()</text><!--MD5=[7d76a4dd6f95527bc8376ae311f32e4a]
class LeitorDeArquivo--><rect codeLine="16" fill="#FEFECE" filter="url(#f19cy6iuaj01fo)" height="86.4141" id="LeitorDeArquivo" style="stroke:#A80036;stroke-width:1.5;" width="201" x="829.5" y="13.5"/><ellipse cx="876.75" cy="29.5" fill="#ADD1B2" rx="11" ry="11" style="stroke:#A80036;stroke-width:1.0;"/><path d="M879.7188,35.1406 Q879.1406,35.4375 878.5,35.5781 Q877.8594,35.7344 877.1563,35.7344 Q874.6563,35.7344 873.3281,34.0938 Q872.0156,32.4375 872.0156,29.3125 Q872.0156,26.1875 873.3281,24.5313 Q874.6563,22.875 877.1563,22.875 Q877.8594,22.875 878.5,23.0313 Q879.1563,23.1875 879.7188,23.4844 L879.7188,26.2031 Q879.0938,25.625 878.5,25.3594 Q877.9063,25.0781 877.2813,25.0781 Q875.9375,25.0781 875.25,26.1563 Q874.5625,27.2188 874.5625,29.3125 Q874.5625,31.4063 875.25,32.4844 Q875.9375,33.5469 877.2813,33.5469 Q877.9063,33.5469 878.5,33.2813 Q879.0938,33 879.7188,32.4219 L879.7188,35.1406 Z " fill="#000000"/><text fill="#000000" font-family="sans-serif" font-size="12" lengthAdjust="spacing" textLength="98" x="897.25" y="33.6543">LeitorDeArquivo</text><line style="stroke:#A80036;stroke-width:1.5;" x1="830.5" x2="1029.5" y1="45.5" y2="45.5"/><line style="stroke:#A80036;stroke-width:1.5;" x1="830.5" x2="1029.5" y1="53.5" y2="53.5"/><ellipse cx="840.5" cy="64.5" fill="#84BE84" rx="3" ry="3" style="stroke:#038048;stroke-width:1.0;"/><text fill="#000000" font-family="sans-serif" font-size="11" lengthAdjust="spacing" textLength="171" x="849.5" y="67.7104">getCaminhoDoArquivo():String</text><ellipse cx="840.5" cy="77.3047" fill="#84BE84" rx="3" ry="3" style="stroke:#038048;stroke-width:1.0;"/><text fill="#000000" font-family="sans-serif" font-size="11" lengthAdjust="spacing" textLength="147" x="849.5" y="80.5151">getTemArquivo(): Boolean</text><ellipse cx="840.5" cy="90.1094" fill="#84BE84" rx="3" ry="3" style="stroke:#038048;stroke-width:1.0;"/><text fill="#000000" font-family="sans-serif" font-size="11" lengthAdjust="spacing" textLength="175" x="849.5" y="93.3198">getConteudoDoArquivo():String</text><!--MD5=[6130c60027cb57cdf173ce39f44ff212]
class ControladorDeGui--><rect codeLine="22" fill="#FEFECE" filter="url(#f19cy6iuaj01fo)" height="60.8047" id="ControladorDeGui" style="stroke:#A80036;stroke-width:1.5;" width="143" x="625.5" y="166"/><ellipse cx="640.5" cy="182" fill="#ADD1B2" rx="11" ry="11" style="stroke:#A80036;stroke-width:1.0;"/><path d="M643.4688,187.6406 Q642.8906,187.9375 642.25,188.0781 Q641.6094,188.2344 640.9063,188.2344 Q638.4063,188.2344 637.0781,186.5938 Q635.7656,184.9375 635.7656,181.8125 Q635.7656,178.6875 637.0781,177.0313 Q638.4063,175.375 640.9063,175.375 Q641.6094,175.375 642.25,175.5313 Q642.9063,175.6875 643.4688,175.9844 L643.4688,178.7031 Q642.8438,178.125 642.25,177.8594 Q641.6563,177.5781 641.0313,177.5781 Q639.6875,177.5781 639,178.6563 Q638.3125,179.7188 638.3125,181.8125 Q638.3125,183.9063 639,184.9844 Q639.6875,186.0469 641.0313,186.0469 Q641.6563,186.0469 642.25,185.7813 Q642.8438,185.5 643.4688,184.9219 L643.4688,187.6406 Z " fill="#000000"/><text fill="#000000" font-family="sans-serif" font-size="12" lengthAdjust="spacing" textLength="111" x="654.5" y="186.1543">ControladorDeGui</text><line style="stroke:#A80036;stroke-width:1.5;" x1="626.5" x2="767.5" y1="198" y2="198"/><line style="stroke:#A80036;stroke-width:1.5;" x1="626.5" x2="767.5" y1="206" y2="206"/><ellipse cx="636.5" cy="217" fill="#84BE84" rx="3" ry="3" style="stroke:#038048;stroke-width:1.0;"/><text fill="#000000" font-family="sans-serif" font-size="11" lengthAdjust="spacing" textLength="52" x="645.5" y="220.2104">executa()</text><!--MD5=[ad23146357bdd208a2f074f6030d17e8]
class DecodificadorTexto--><rect codeLine="26" fill="#FEFECE" filter="url(#f19cy6iuaj01fo)" height="60.8047" id="DecodificadorTexto" style="stroke:#A80036;stroke-width:1.5;" width="177" x="449.5" y="452.5"/><ellipse cx="475.75" cy="468.5" fill="#ADD1B2" rx="11" ry="11" style="stroke:#A80036;stroke-width:1.0;"/><path d="M478.7188,474.1406 Q478.1406,474.4375 477.5,474.5781 Q476.8594,474.7344 476.1563,474.7344 Q473.6563,474.7344 472.3281,473.0938 Q471.0156,471.4375 471.0156,468.3125 Q471.0156,465.1875 472.3281,463.5313 Q473.6563,461.875 476.1563,461.875 Q476.8594,461.875 477.5,462.0313 Q478.1563,462.1875 478.7188,462.4844 L478.7188,465.2031 Q478.0938,464.625 477.5,464.3594 Q476.9063,464.0781 476.2813,464.0781 Q474.9375,464.0781 474.25,465.1563 Q473.5625,466.2188 473.5625,468.3125 Q473.5625,470.4063 474.25,471.4844 Q474.9375,472.5469 476.2813,472.5469 Q476.9063,472.5469 477.5,472.2813 Q478.0938,472 478.7188,471.4219 L478.7188,474.1406 Z " fill="#000000"/><text fill="#000000" font-family="sans-serif" font-size="12" lengthAdjust="spacing" textLength="120" x="492.25" y="472.6543">DecodificadorTexto</text><line style="stroke:#A80036;stroke-width:1.5;" x1="450.5" x2="625.5" y1="484.5" y2="484.5"/><line style="stroke:#A80036;stroke-width:1.5;" x1="450.5" x2="625.5" y1="492.5" y2="492.5"/><ellipse cx="460.5" cy="503.5" fill="#84BE84" rx="3" ry="3" style="stroke:#038048;stroke-width:1.0;"/><text fill="#000000" font-family="sans-serif" font-size="11" lengthAdjust="spacing" textLength="151" x="469.5" y="506.7104">traduzTexto(String):Musica</text><!--MD5=[1779cf4dea73243dda24388918ce614c]
class TradutorTextoComando--><rect codeLine="30" fill="#FEFECE" filter="url(#f19cy6iuaj01fo)" height="73.6094" id="TradutorTextoComando" style="stroke:#A80036;stroke-width:1.5;" width="218" x="97" y="624.5"/><ellipse cx="129.1" cy="640.5" fill="#B4A7E5" rx="11" ry="11" style="stroke:#A80036;stroke-width:1.0;"/><path d="M125.0219,636.2656 L125.0219,634.1094 L132.4125,634.1094 L132.4125,636.2656 L129.9438,636.2656 L129.9438,644.3438 L132.4125,644.3438 L132.4125,646.5 L125.0219,646.5 L125.0219,644.3438 L127.4906,644.3438 L127.4906,636.2656 L125.0219,636.2656 Z " fill="#000000"/><text fill="#000000" font-family="sans-serif" font-size="12" font-style="italic" lengthAdjust="spacing" textLength="148" x="146.9" y="644.6543">TradutorTextoComando</text><line style="stroke:#A80036;stroke-width:1.5;" x1="98" x2="314" y1="656.5" y2="656.5"/><line style="stroke:#A80036;stroke-width:1.5;" x1="98" x2="314" y1="664.5" y2="664.5"/><ellipse cx="108" cy="675.5" fill="#84BE84" rx="3" ry="3" style="stroke:#038048;stroke-width:1.0;"/><text fill="#000000" font-family="sans-serif" font-size="11" lengthAdjust="spacing" textLength="133" x="117" y="678.7104">traduz(String):comando</text><ellipse cx="108" cy="688.3047" fill="#84BE84" rx="3" ry="3" style="stroke:#038048;stroke-width:1.0;"/><text fill="#000000" font-family="sans-serif" font-size="11" lengthAdjust="spacing" textLength="192" x="117" y="691.5151">defineUltimoCaracter(Character );</text><!--MD5=[26e688f3331c1a80bfb7f45feb153195]
class TradutorTextoParaComando--><rect codeLine="35" fill="#FEFECE" filter="url(#f19cy6iuaj01fo)" height="48" id="TradutorTextoParaComando" style="stroke:#A80036;stroke-width:1.5;" width="208" x="7" y="854"/><ellipse cx="22" cy="870" fill="#ADD1B2" rx="11" ry="11" style="stroke:#A80036;stroke-width:1.0;"/><path d="M24.9688,875.6406 Q24.3906,875.9375 23.75,876.0781 Q23.1094,876.2344 22.4063,876.2344 Q19.9063,876.2344 18.5781,874.5938 Q17.2656,872.9375 17.2656,869.8125 Q17.2656,866.6875 18.5781,865.0313 Q19.9063,863.375 22.4063,863.375 Q23.1094,863.375 23.75,863.5313 Q24.4063,863.6875 24.9688,863.9844 L24.9688,866.7031 Q24.3438,866.125 23.75,865.8594 Q23.1563,865.5781 22.5313,865.5781 Q21.1875,865.5781 20.5,866.6563 Q19.8125,867.7188 19.8125,869.8125 Q19.8125,871.9063 20.5,872.9844 Q21.1875,874.0469 22.5313,874.0469 Q23.1563,874.0469 23.75,873.7813 Q24.3438,873.5 24.9688,872.9219 L24.9688,875.6406 Z " fill="#000000"/><text fill="#000000" font-family="sans-serif" font-size="12" lengthAdjust="spacing" textLength="176" x="36" y="874.1543">TradutorTextoParaComando</text><line style="stroke:#A80036;stroke-width:1.5;" x1="8" x2="214" y1="886" y2="886"/><line style="stroke:#A80036;stroke-width:1.5;" x1="8" x2="214" y1="894" y2="894"/><!--MD5=[815aba036e14179ebf1afa7ee6e3a016]
class ControladorMusical--><rect codeLine="37" fill="#FEFECE" filter="url(#f19cy6iuaj01fo)" height="73.6094" id="ControladorMusical" style="stroke:#A80036;stroke-width:1.5;" width="206" x="754" y="446"/><ellipse cx="793.3" cy="462" fill="#ADD1B2" rx="11" ry="11" style="stroke:#A80036;stroke-width:1.0;"/><path d="M796.2688,467.6406 Q795.6906,467.9375 795.05,468.0781 Q794.4094,468.2344 793.7063,468.2344 Q791.2063,468.2344 789.8781,466.5938 Q788.5656,464.9375 788.5656,461.8125 Q788.5656,458.6875 789.8781,457.0313 Q791.2063,455.375 793.7063,455.375 Q794.4094,455.375 795.05,455.5313 Q795.7063,455.6875 796.2688,455.9844 L796.2688,458.7031 Q795.6438,458.125 795.05,457.8594 Q794.4563,457.5781 793.8313,457.5781 Q792.4875,457.5781 791.8,458.6563 Q791.1125,459.7188 791.1125,461.8125 Q791.1125,463.9063 791.8,464.9844 Q792.4875,466.0469 793.8313,466.0469 Q794.4563,466.0469 795.05,465.7813 Q795.6438,465.5 796.2688,464.9219 L796.2688,467.6406 Z " fill="#000000"/><text fill="#000000" font-family="sans-serif" font-size="12" lengthAdjust="spacing" textLength="120" x="812.7" y="466.1543">ControladorMusical</text><line style="stroke:#A80036;stroke-width:1.5;" x1="755" x2="959" y1="478" y2="478"/><line style="stroke:#A80036;stroke-width:1.5;" x1="755" x2="959" y1="486" y2="486"/><ellipse cx="765" cy="497" fill="#84BE84" rx="3" ry="3" style="stroke:#038048;stroke-width:1.0;"/><text fill="#000000" font-family="sans-serif" font-size="11" lengthAdjust="spacing" textLength="180" x="774" y="500.2104">executaMusica(Musica,Boolean)</text><ellipse cx="765" cy="509.8047" fill="#84BE84" rx="3" ry="3" style="stroke:#038048;stroke-width:1.0;"/><text fill="#000000" font-family="sans-serif" font-size="11" lengthAdjust="spacing" textLength="151" x="774" y="513.0151">defineInstrumento(Musica)</text><!--MD5=[3947fcfebebf3a380209f6200e77d224]
class AdaptadorMusical--><rect codeLine="42" fill="#FEFECE" filter="url(#f19cy6iuaj01fo)" height="163.2422" id="AdaptadorMusical" style="stroke:#A80036;stroke-width:1.5;" width="192" x="761" y="580"/><ellipse cx="798.05" cy="596" fill="#B4A7E5" rx="11" ry="11" style="stroke:#A80036;stroke-width:1.0;"/><path d="M793.9719,591.7656 L793.9719,589.6094 L801.3625,589.6094 L801.3625,591.7656 L798.8938,591.7656 L798.8938,599.8438 L801.3625,599.8438 L801.3625,602 L793.9719,602 L793.9719,599.8438 L796.4406,599.8438 L796.4406,591.7656 L793.9719,591.7656 Z " fill="#000000"/><text fill="#000000" font-family="sans-serif" font-size="12" font-style="italic" lengthAdjust="spacing" textLength="111" x="816.95" y="600.1543">AdaptadorMusical</text><line style="stroke:#A80036;stroke-width:1.5;" x1="762" x2="952" y1="612" y2="612"/><line style="stroke:#A80036;stroke-width:1.5;" x1="762" x2="952" y1="620" y2="620"/><ellipse cx="772" cy="631" fill="#84BE84" rx="3" ry="3" style="stroke:#038048;stroke-width:1.0;"/><text fill="#000000" font-family="sans-serif" font-size="11" lengthAdjust="spacing" textLength="135" x="781" y="634.2104">adicionaNota(Comando)</text><ellipse cx="772" cy="643.8047" fill="#84BE84" rx="3" ry="3" style="stroke:#038048;stroke-width:1.0;"/><text fill="#000000" font-family="sans-serif" font-size="11" lengthAdjust="spacing" textLength="157" x="781" y="647.0151">adicionaNota(Comando, int)</text><ellipse cx="772" cy="656.6094" fill="#84BE84" rx="3" ry="3" style="stroke:#038048;stroke-width:1.0;"/><text fill="#000000" font-family="sans-serif" font-size="11" lengthAdjust="spacing" textLength="71" x="781" y="659.8198">tocaMusica()</text><ellipse cx="772" cy="669.4141" fill="#84BE84" rx="3" ry="3" style="stroke:#038048;stroke-width:1.0;"/><text fill="#000000" font-family="sans-serif" font-size="11" lengthAdjust="spacing" textLength="99" x="781" y="672.6245">aumentarOitava()</text><ellipse cx="772" cy="682.2188" fill="#84BE84" rx="3" ry="3" style="stroke:#038048;stroke-width:1.0;"/><text fill="#000000" font-family="sans-serif" font-size="11" lengthAdjust="spacing" textLength="105" x="781" y="685.4292">aumentarVolume()</text><ellipse cx="772" cy="695.0234" fill="#84BE84" rx="3" ry="3" style="stroke:#038048;stroke-width:1.0;"/><text fill="#000000" font-family="sans-serif" font-size="11" lengthAdjust="spacing" textLength="166" x="781" y="698.2339">defineInstrumento(Comando)</text><ellipse cx="772" cy="707.8281" fill="#84BE84" rx="3" ry="3" style="stroke:#038048;stroke-width:1.0;"/><text fill="#000000" font-family="sans-serif" font-size="11" lengthAdjust="spacing" textLength="155" x="781" y="711.0386">incrementaInstrumento(int)</text><ellipse cx="772" cy="720.6328" fill="#84BE84" rx="3" ry="3" style="stroke:#038048;stroke-width:1.0;"/><text fill="#000000" font-family="sans-serif" font-size="11" lengthAdjust="spacing" textLength="78" x="781" y="723.8433">limpaMusica()</text><ellipse cx="772" cy="733.4375" fill="#84BE84" rx="3" ry="3" style="stroke:#038048;stroke-width:1.0;"/><text fill="#000000" font-family="sans-serif" font-size="11" lengthAdjust="spacing" textLength="77" x="781" y="736.6479">salvaMusica()</text><!--MD5=[20a2f73b19b4899378588d8d90d683d2]
class AdaptadorJFugue--><rect codeLine="54" fill="#FEFECE" filter="url(#f19cy6iuaj01fo)" height="99.2188" id="AdaptadorJFugue" style="stroke:#A80036;stroke-width:1.5;" width="140" x="787" y="828.5"/><ellipse cx="802" cy="844.5" fill="#ADD1B2" rx="11" ry="11" style="stroke:#A80036;stroke-width:1.0;"/><path d="M804.9688,850.1406 Q804.3906,850.4375 803.75,850.5781 Q803.1094,850.7344 802.4063,850.7344 Q799.9063,850.7344 798.5781,849.0938 Q797.2656,847.4375 797.2656,844.3125 Q797.2656,841.1875 798.5781,839.5313 Q799.9063,837.875 802.4063,837.875 Q803.1094,837.875 803.75,838.0313 Q804.4063,838.1875 804.9688,838.4844 L804.9688,841.2031 Q804.3438,840.625 803.75,840.3594 Q803.1563,840.0781 802.5313,840.0781 Q801.1875,840.0781 800.5,841.1563 Q799.8125,842.2188 799.8125,844.3125 Q799.8125,846.4063 800.5,847.4844 Q801.1875,848.5469 802.5313,848.5469 Q803.1563,848.5469 803.75,848.2813 Q804.3438,848 804.9688,847.4219 L804.9688,850.1406 Z " fill="#000000"/><text fill="#000000" font-family="sans-serif" font-size="12" lengthAdjust="spacing" textLength="108" x="816" y="848.6543">AdaptadorJFugue</text><line style="stroke:#A80036;stroke-width:1.5;" x1="788" x2="926" y1="860.5" y2="860.5"/><rect fill="none" height="6" style="stroke:#C82930;stroke-width:1.0;" width="6" x="795" y="868.5"/><text fill="#000000" font-family="sans-serif" font-size="11" lengthAdjust="spacing" textLength="97" x="807" y="874.7104">instrumentoAtual</text><rect fill="none" height="6" style="stroke:#C82930;stroke-width:1.0;" width="6" x="795" y="881.3047"/><text fill="#000000" font-family="sans-serif" font-size="11" lengthAdjust="spacing" textLength="69" x="807" y="887.5151">volumeAtual</text><rect fill="none" height="6" style="stroke:#C82930;stroke-width:1.0;" width="6" x="795" y="894.1094"/><text fill="#000000" font-family="sans-serif" font-size="11" lengthAdjust="spacing" textLength="62" x="807" y="900.3198">oitavaAtual</text><rect fill="none" height="6" style="stroke:#C82930;stroke-width:1.0;" width="6" x="795" y="906.9141"/><text fill="#000000" font-family="sans-serif" font-size="11" lengthAdjust="spacing" textLength="78" x="807" y="913.1245">patternCriado</text><line style="stroke:#A80036;stroke-width:1.5;" x1="788" x2="926" y1="919.7188" y2="919.7188"/><!--MD5=[d63fe63646089ff52087578b35a1ed5a]
class JFugueDownloader--><rect codeLine="61" fill="#FEFECE" filter="url(#f19cy6iuaj01fo)" height="60.8047" id="JFugueDownloader" style="stroke:#A80036;stroke-width:1.5;" width="148" x="667" y="1013"/><ellipse cx="682" cy="1029" fill="#ADD1B2" rx="11" ry="11" style="stroke:#A80036;stroke-width:1.0;"/><path d="M684.9688,1034.6406 Q684.3906,1034.9375 683.75,1035.0781 Q683.1094,1035.2344 682.4063,1035.2344 Q679.9063,1035.2344 678.5781,1033.5938 Q677.2656,1031.9375 677.2656,1028.8125 Q677.2656,1025.6875 678.5781,1024.0313 Q679.9063,1022.375 682.4063,1022.375 Q683.1094,1022.375 683.75,1022.5313 Q684.4063,1022.6875 684.9688,1022.9844 L684.9688,1025.7031 Q684.3438,1025.125 683.75,1024.8594 Q683.1563,1024.5781 682.5313,1024.5781 Q681.1875,1024.5781 680.5,1025.6563 Q679.8125,1026.7188 679.8125,1028.8125 Q679.8125,1030.9063 680.5,1031.9844 Q681.1875,1033.0469 682.5313,1033.0469 Q683.1563,1033.0469 683.75,1032.7813 Q684.3438,1032.5 684.9688,1031.9219 L684.9688,1034.6406 Z " fill="#000000"/><text fill="#000000" font-family="sans-serif" font-size="12" lengthAdjust="spacing" textLength="116" x="696" y="1033.1543">JFugueDownloader</text><line style="stroke:#A80036;stroke-width:1.5;" x1="668" x2="814" y1="1045" y2="1045"/><line style="stroke:#A80036;stroke-width:1.5;" x1="668" x2="814" y1="1053" y2="1053"/><ellipse cx="678" cy="1064" fill="#84BE84" rx="3" ry="3" style="stroke:#038048;stroke-width:1.0;"/><text fill="#000000" font-family="sans-serif" font-size="11" lengthAdjust="spacing" textLength="82" x="687" y="1067.2104">salvarMusica()</text><!--MD5=[f549f87ec26c612c42cbcdc1340cf410]
class TradutorAdaptador--><rect codeLine="65" fill="#FEFECE" filter="url(#f19cy6iuaj01fo)" height="60.8047" id="TradutorAdaptador" style="stroke:#A80036;stroke-width:1.5;" width="245" x="850.5" y="1013"/><ellipse cx="908.75" cy="1029" fill="#B4A7E5" rx="11" ry="11" style="stroke:#A80036;stroke-width:1.0;"/><path d="M904.6719,1024.7656 L904.6719,1022.6094 L912.0625,1022.6094 L912.0625,1024.7656 L909.5938,1024.7656 L909.5938,1032.8438 L912.0625,1032.8438 L912.0625,1035 L904.6719,1035 L904.6719,1032.8438 L907.1406,1032.8438 L907.1406,1024.7656 L904.6719,1024.7656 Z " fill="#000000"/><text fill="#000000" font-family="sans-serif" font-size="12" font-style="italic" lengthAdjust="spacing" textLength="120" x="929.25" y="1033.1543">TradutorAdaptador</text><line style="stroke:#A80036;stroke-width:1.5;" x1="851.5" x2="1094.5" y1="1045" y2="1045"/><line style="stroke:#A80036;stroke-width:1.5;" x1="851.5" x2="1094.5" y1="1053" y2="1053"/><ellipse cx="861.5" cy="1064" fill="#84BE84" rx="3" ry="3" style="stroke:#038048;stroke-width:1.0;"/><text fill="#000000" font-family="sans-serif" font-size="11" lengthAdjust="spacing" textLength="219" x="870.5" y="1067.2104">traduzParaAdaptador(Comando):String</text><!--MD5=[03372b0263af18838c083ca65e435dfd]
class TradutorJFugue--><rect codeLine="69" fill="#FEFECE" filter="url(#f19cy6iuaj01fo)" height="48" id="TradutorJFugue" style="stroke:#A80036;stroke-width:1.5;" width="128" x="909" y="1134"/><ellipse cx="924" cy="1150" fill="#ADD1B2" rx="11" ry="11" style="stroke:#A80036;stroke-width:1.0;"/><path d="M926.9688,1155.6406 Q926.3906,1155.9375 925.75,1156.0781 Q925.1094,1156.2344 924.4063,1156.2344 Q921.9063,1156.2344 920.5781,1154.5938 Q919.2656,1152.9375 919.2656,1149.8125 Q919.2656,1146.6875 920.5781,1145.0313 Q921.9063,1143.375 924.4063,1143.375 Q925.1094,1143.375 925.75,1143.5313 Q926.4063,1143.6875 926.9688,1143.9844 L926.9688,1146.7031 Q926.3438,1146.125 925.75,1145.8594 Q925.1563,1145.5781 924.5313,1145.5781 Q923.1875,1145.5781 922.5,1146.6563 Q921.8125,1147.7188 921.8125,1149.8125 Q921.8125,1151.9063 922.5,1152.9844 Q923.1875,1154.0469 924.5313,1154.0469 Q925.1563,1154.0469 925.75,1153.7813 Q926.3438,1153.5 926.9688,1152.9219 L926.9688,1155.6406 Z " fill="#000000"/><text fill="#000000" font-family="sans-serif" font-size="12" lengthAdjust="spacing" textLength="96" x="938" y="1154.1543">TradutorJFugue</text><line style="stroke:#A80036;stroke-width:1.5;" x1="910" x2="1036" y1="1166" y2="1166"/><line style="stroke:#A80036;stroke-width:1.5;" x1="910" x2="1036" y1="1174" y2="1174"/><!--MD5=[51f0781105b9cf5fcba3c6a2af676f78]
class Comando--><rect codeLine="73" fill="#FEFECE" filter="url(#f19cy6iuaj01fo)" height="150.4375" id="Comando" style="stroke:#A80036;stroke-width:1.5;" width="91" x="250.5" y="803"/><ellipse cx="265.5" cy="819" fill="#EB937F" rx="11" ry="11" style="stroke:#A80036;stroke-width:1.0;"/><path d="M269.6094,825 L261.8906,825 L261.8906,812.6094 L269.6094,812.6094 L269.6094,814.7656 L264.3438,814.7656 L264.3438,817.4375 L269.1094,817.4375 L269.1094,819.5938 L264.3438,819.5938 L264.3438,822.8438 L269.6094,822.8438 L269.6094,825 Z " fill="#000000"/><text fill="#000000" font-family="sans-serif" font-size="12" lengthAdjust="spacing" textLength="59" x="279.5" y="823.1543">Comando</text><line style="stroke:#A80036;stroke-width:1.5;" x1="251.5" x2="340.5" y1="835" y2="835"/><ellipse cx="261.5" cy="846" rx="3" ry="3" style="stroke:#038048;stroke-width:1.0;fill:none;"/><text fill="#000000" font-family="sans-serif" font-size="11" lengthAdjust="spacing" textLength="17" x="270.5" y="849.2104">DO</text><ellipse cx="261.5" cy="858.8047" rx="3" ry="3" style="stroke:#038048;stroke-width:1.0;fill:none;"/><text fill="#000000" font-family="sans-serif" font-size="11" lengthAdjust="spacing" textLength="14" x="270.5" y="862.0151">RE</text><ellipse cx="261.5" cy="871.6094" rx="3" ry="3" style="stroke:#038048;stroke-width:1.0;fill:none;"/><text fill="#000000" font-family="sans-serif" font-size="11" lengthAdjust="spacing" textLength="12" x="270.5" y="874.8198">MI</text><ellipse cx="261.5" cy="884.4141" rx="3" ry="3" style="stroke:#038048;stroke-width:1.0;fill:none;"/><text fill="#000000" font-family="sans-serif" font-size="11" lengthAdjust="spacing" textLength="13" x="270.5" y="887.6245">FA</text><ellipse cx="261.5" cy="897.2188" rx="3" ry="3" style="stroke:#038048;stroke-width:1.0;fill:none;"/><text fill="#000000" font-family="sans-serif" font-size="11" lengthAdjust="spacing" textLength="23" x="270.5" y="900.4292">SOL</text><ellipse cx="261.5" cy="910.0234" rx="3" ry="3" style="stroke:#038048;stroke-width:1.0;fill:none;"/><text fill="#000000" font-family="sans-serif" font-size="11" lengthAdjust="spacing" textLength="13" x="270.5" y="913.2339">LA</text><ellipse cx="261.5" cy="922.8281" rx="3" ry="3" style="stroke:#038048;stroke-width:1.0;fill:none;"/><text fill="#000000" font-family="sans-serif" font-size="11" lengthAdjust="spacing" textLength="11" x="270.5" y="926.0386">SI</text><text fill="#000000" font-family="sans-serif" font-size="11" lengthAdjust="spacing" textLength="12" x="270.5" y="938.8433">...</text><line style="stroke:#A80036;stroke-width:1.5;" x1="251.5" x2="340.5" y1="945.4375" y2="945.4375"/><!--MD5=[2927a630b13e88512b2d3b16c23c7e23]
class Musica--><rect codeLine="84" fill="#FEFECE" filter="url(#f19cy6iuaj01fo)" height="99.2188" id="Musica" style="stroke:#A80036;stroke-width:1.5;" width="375" x="350.5" y="612"/><ellipse cx="512.25" cy="628" fill="#ADD1B2" rx="11" ry="11" style="stroke:#A80036;stroke-width:1.0;"/><path d="M515.2188,633.6406 Q514.6406,633.9375 514,634.0781 Q513.3594,634.2344 512.6563,634.2344 Q510.1563,634.2344 508.8281,632.5938 Q507.5156,630.9375 507.5156,627.8125 Q507.5156,624.6875 508.8281,623.0313 Q510.1563,621.375 512.6563,621.375 Q513.3594,621.375 514,621.5313 Q514.6563,621.6875 515.2188,621.9844 L515.2188,624.7031 Q514.5938,624.125 514,623.8594 Q513.4063,623.5781 512.7813,623.5781 Q511.4375,623.5781 510.75,624.6563 Q510.0625,625.7188 510.0625,627.8125 Q510.0625,629.9063 510.75,630.9844 Q511.4375,632.0469 512.7813,632.0469 Q513.4063,632.0469 514,631.7813 Q514.5938,631.5 515.2188,630.9219 L515.2188,633.6406 Z " fill="#000000"/><text fill="#000000" font-family="sans-serif" font-size="12" lengthAdjust="spacing" textLength="43" x="532.75" y="632.1543">Musica</text><line style="stroke:#A80036;stroke-width:1.5;" x1="351.5" x2="724.5" y1="644" y2="644"/><rect fill="none" height="6" style="stroke:#C82930;stroke-width:1.0;" width="6" x="358.5" y="652"/><text fill="#000000" font-family="sans-serif" font-size="11" lengthAdjust="spacing" textLength="173" x="370.5" y="658.2104">sequenciaDeVisaoDeComando</text><line style="stroke:#A80036;stroke-width:1.5;" x1="351.5" x2="724.5" y1="664.8047" y2="664.8047"/><ellipse cx="361.5" cy="675.8047" fill="#84BE84" rx="3" ry="3" style="stroke:#038048;stroke-width:1.0;"/><text fill="#000000" font-family="sans-serif" font-size="11" lengthAdjust="spacing" textLength="349" x="370.5" y="679.0151">getSequenciaDeVisaoDeComandos():List&lt;VisaoDeComando&gt;</text><ellipse cx="361.5" cy="688.6094" fill="#84BE84" rx="3" ry="3" style="stroke:#038048;stroke-width:1.0;"/><text fill="#000000" font-family="sans-serif" font-size="11" lengthAdjust="spacing" textLength="345" x="370.5" y="691.8198">setSequenciaDeVisaoDeComandos(List&lt;VisaoDeComando&gt;)</text><ellipse cx="361.5" cy="701.4141" fill="#84BE84" rx="3" ry="3" style="stroke:#038048;stroke-width:1.0;"/><text fill="#000000" font-family="sans-serif" font-size="11" lengthAdjust="spacing" textLength="229" x="370.5" y="704.6245">addVisaoDeComando(VisaoDeComando)</text><!--MD5=[7a4a5ba4faf179c21e693c027ac77c7b]
class VisaoDeComando--><rect codeLine="91" fill="#FEFECE" filter="url(#f19cy6iuaj01fo)" height="99.2188" id="VisaoDeComando" style="stroke:#A80036;stroke-width:1.5;" width="142" x="467" y="828.5"/><ellipse cx="482" cy="844.5" fill="#ADD1B2" rx="11" ry="11" style="stroke:#A80036;stroke-width:1.0;"/><path d="M484.9688,850.1406 Q484.3906,850.4375 483.75,850.5781 Q483.1094,850.7344 482.4063,850.7344 Q479.9063,850.7344 478.5781,849.0938 Q477.2656,847.4375 477.2656,844.3125 Q477.2656,841.1875 478.5781,839.5313 Q479.9063,837.875 482.4063,837.875 Q483.1094,837.875 483.75,838.0313 Q484.4063,838.1875 484.9688,838.4844 L484.9688,841.2031 Q484.3438,840.625 483.75,840.3594 Q483.1563,840.0781 482.5313,840.0781 Q481.1875,840.0781 480.5,841.1563 Q479.8125,842.2188 479.8125,844.3125 Q479.8125,846.4063 480.5,847.4844 Q481.1875,848.5469 482.5313,848.5469 Q483.1563,848.5469 483.75,848.2813 Q484.3438,848 484.9688,847.4219 L484.9688,850.1406 Z " fill="#000000"/><text fill="#000000" font-family="sans-serif" font-size="12" lengthAdjust="spacing" textLength="110" x="496" y="848.6543">VisaoDeComando</text><line style="stroke:#A80036;stroke-width:1.5;" x1="468" x2="608" y1="860.5" y2="860.5"/><rect fill="none" height="6" style="stroke:#C82930;stroke-width:1.0;" width="6" x="475" y="868.5"/><text fill="#000000" font-family="sans-serif" font-size="11" lengthAdjust="spacing" textLength="54" x="487" y="874.7104">Comando</text><rect fill="none" height="6" style="stroke:#C82930;stroke-width:1.0;" width="6" x="475" y="881.3047"/><text fill="#000000" font-family="sans-serif" font-size="11" lengthAdjust="spacing" textLength="62" x="487" y="887.5151">Repeticoes</text><line style="stroke:#A80036;stroke-width:1.5;" x1="468" x2="608" y1="894.1094" y2="894.1094"/><ellipse cx="478" cy="905.1094" fill="#84BE84" rx="3" ry="3" style="stroke:#038048;stroke-width:1.0;"/><text fill="#000000" font-family="sans-serif" font-size="11" lengthAdjust="spacing" textLength="102" x="487" y="908.3198">setRepeticoes(int)</text><ellipse cx="478" cy="917.9141" fill="#84BE84" rx="3" ry="3" style="stroke:#038048;stroke-width:1.0;"/><text fill="#000000" font-family="sans-serif" font-size="11" lengthAdjust="spacing" textLength="86" x="487" y="921.1245">incRepeticoes()</text><!--MD5=[baca43ff017fe2d6adab482eca4194c9]
class ValidadorDeComando--><rect codeLine="98" fill="#FEFECE" filter="url(#f19cy6iuaj01fo)" height="112.0234" id="ValidadorDeComando" style="stroke:#A80036;stroke-width:1.5;" width="283" x="988.5" y="605.5"/><ellipse cx="1058.25" cy="621.5" fill="#ADD1B2" rx="11" ry="11" style="stroke:#A80036;stroke-width:1.0;"/><path d="M1061.2188,627.1406 Q1060.6406,627.4375 1060,627.5781 Q1059.3594,627.7344 1058.6563,627.7344 Q1056.1563,627.7344 1054.8281,626.0938 Q1053.5156,624.4375 1053.5156,621.3125 Q1053.5156,618.1875 1054.8281,616.5313 Q1056.1563,614.875 1058.6563,614.875 Q1059.3594,614.875 1060,615.0313 Q1060.6563,615.1875 1061.2188,615.4844 L1061.2188,618.2031 Q1060.5938,617.625 1060,617.3594 Q1059.4063,617.0781 1058.7813,617.0781 Q1057.4375,617.0781 1056.75,618.1563 Q1056.0625,619.2188 1056.0625,621.3125 Q1056.0625,623.4063 1056.75,624.4844 Q1057.4375,625.5469 1058.7813,625.5469 Q1059.4063,625.5469 1060,625.2813 Q1060.5938,625 1061.2188,624.4219 L1061.2188,627.1406 Z " fill="#000000"/><text fill="#000000" font-family="sans-serif" font-size="12" lengthAdjust="spacing" textLength="135" x="1078.75" y="625.6543">ValidadorDeComando</text><line style="stroke:#A80036;stroke-width:1.5;" x1="989.5" x2="1270.5" y1="637.5" y2="637.5"/><line style="stroke:#A80036;stroke-width:1.5;" x1="989.5" x2="1270.5" y1="645.5" y2="645.5"/><ellipse cx="999.5" cy="656.5" fill="#84BE84" rx="3" ry="3" style="stroke:#038048;stroke-width:1.0;"/><text fill="#000000" font-family="sans-serif" font-size="11" lengthAdjust="spacing" textLength="145" x="1008.5" y="659.7104">eNota(Comando):Boolean</text><ellipse cx="999.5" cy="669.3047" fill="#84BE84" rx="3" ry="3" style="stroke:#038048;stroke-width:1.0;"/><text fill="#000000" font-family="sans-serif" font-size="11" lengthAdjust="spacing" textLength="230" x="1008.5" y="672.5151">eComandoDeVolume(Comando):Boolean</text><ellipse cx="999.5" cy="682.1094" fill="#84BE84" rx="3" ry="3" style="stroke:#038048;stroke-width:1.0;"/><text fill="#000000" font-family="sans-serif" font-size="11" lengthAdjust="spacing" textLength="212" x="1008.5" y="685.3198">eComandoDeBPM(Comando):Boolean</text><ellipse cx="999.5" cy="694.9141" fill="#84BE84" rx="3" ry="3" style="stroke:#038048;stroke-width:1.0;"/><text fill="#000000" font-family="sans-serif" font-size="11" lengthAdjust="spacing" textLength="224" x="1008.5" y="698.1245">eComandoDeOitava(Comando):Boolean</text><ellipse cx="999.5" cy="707.7188" fill="#84BE84" rx="3" ry="3" style="stroke:#038048;stroke-width:1.0;"/><text fill="#000000" font-family="sans-serif" font-size="11" lengthAdjust="spacing" textLength="257" x="1008.5" y="710.9292">eComandoDeInstrumento(Comando):Boolean</text><!--MD5=[b65eb35e67c12f80dde7b1f5192fa4e5]
reverse link TradutorTextoComando to TradutorTextoParaComando--><path d="M181.73,717.3 C162.19,761.42 135.7,821.24 121.32,853.7 " fill="none" id="TradutorTextoComando-backto-TradutorTextoParaComando" style="stroke:#A80036;stroke-width:1.0;stroke-dasharray:7.0,7.0;"/><polygon fill="none" points="175.39,714.34,189.88,698.89,188.19,720.01,175.39,714.34" style="stroke:#A80036;stroke-width:1.0;"/><!--MD5=[5fd119549db5b76968d1fa7f6bc1a1f0]
reverse link AdaptadorMusical to AdaptadorJFugue--><path d="M857,763.39 C857,786.01 857,809 857,828.33 " fill="none" id="AdaptadorMusical-backto-AdaptadorJFugue" style="stroke:#A80036;stroke-width:1.0;stroke-dasharray:7.0,7.0;"/><polygon fill="none" points="850,763.29,857,743.29,864,763.29,850,763.29" style="stroke:#A80036;stroke-width:1.0;"/><!--MD5=[8641968d1feeec22deeb3530b4067c26]
reverse link TradutorAdaptador to TradutorJFugue--><path d="M973,1094.11 C973,1107.88 973,1122.18 973,1133.67 " fill="none" id="TradutorAdaptador-backto-TradutorJFugue" style="stroke:#A80036;stroke-width:1.0;stroke-dasharray:7.0,7.0;"/><polygon fill="none" points="966,1094.06,973,1074.06,980,1094.06,966,1094.06" style="stroke:#A80036;stroke-width:1.0;"/><!--MD5=[bed18191d696614ec207682b807a4388]
reverse link Interface to ControladorDeGui--><path codeLine="106" d="M697,126.24 C697,140.14 697,154.06 697,165.73 " fill="none" id="Interface-backto-ControladorDeGui" style="stroke:#A80036;stroke-width:1.0;"/><polygon fill="none" points="690,126.15,697,106.15,704,126.15,690,126.15" style="stroke:#A80036;stroke-width:1.0;"/><!--MD5=[a870bf5f7dbc3593597ccc7b818455b2]
link Interface to LeitorDeArquivo--><path codeLine="107" d="M794.84,56.5 C804.66,56.5 814.47,56.5 824.29,56.5 " fill="none" id="Interface-to-LeitorDeArquivo" style="stroke:#A80036;stroke-width:1.0;"/><polygon fill="#A80036" points="829.42,56.5,820.42,52.5,824.42,56.5,820.42,60.5,829.42,56.5" style="stroke:#A80036;stroke-width:1.0;"/><!--MD5=[c84fb3473115a2a87a2fcaf60169d81c]
link ControladorDeGui to Orquestrador--><path codeLine="108" d="M697,227.1 C697,243.03 697,263.17 697,281.75 " fill="none" id="ControladorDeGui-to-Orquestrador" style="stroke:#A80036;stroke-width:1.0;"/><polygon fill="#A80036" points="697,286.95,701,277.95,697,281.95,693,277.95,697,286.95" style="stroke:#A80036;stroke-width:1.0;"/><!--MD5=[65325e9f065709b66df0d36f925f31bd]
link AdaptadorJFugue to JFugueDownloader--><path codeLine="109" d="M822.51,927.61 C804.03,953.67 781.71,985.12 765.1,1008.53 " fill="none" id="AdaptadorJFugue-to-JFugueDownloader" style="stroke:#A80036;stroke-width:1.0;"/><polygon fill="#A80036" points="762.07,1012.8,770.5411,1007.7761,764.964,1008.7227,764.0174,1003.1456,762.07,1012.8" style="stroke:#A80036;stroke-width:1.0;"/><!--MD5=[62aa4cb5e3dd877af5d40116dfa1e6ba]
link Orquestrador to ControladorMusical--><path codeLine="110" d="M750.72,386.02 C771.06,404.39 793.96,425.06 813.27,442.51 " fill="none" id="Orquestrador-to-ControladorMusical" style="stroke:#A80036;stroke-width:1.0;"/><polygon fill="#A80036" points="817.08,445.95,813.0662,436.9561,813.3635,442.6052,807.7145,442.9025,817.08,445.95" style="stroke:#A80036;stroke-width:1.0;"/><!--MD5=[1b1bcea03a752c7124aec79bab20add1]
link Orquestrador to DecodificadorTexto--><path codeLine="111" d="M643.61,386.02 C620.85,406.7 594.88,430.31 574.38,448.93 " fill="none" id="Orquestrador-to-DecodificadorTexto" style="stroke:#A80036;stroke-width:1.0;"/><polygon fill="#A80036" points="570.62,452.35,579.9731,449.2647,574.3229,448.9902,574.5974,443.34,570.62,452.35" style="stroke:#A80036;stroke-width:1.0;"/><!--MD5=[7fdd772908b8c3c928ae37a7efadeb59]
link DecodificadorTexto to TradutorTextoComando--><path codeLine="112" d="M469.05,513.65 C428.76,531.63 377.28,555.72 333,580 C309.82,592.71 285.11,607.95 263.71,621.74 " fill="none" id="DecodificadorTexto-to-TradutorTextoComando" style="stroke:#A80036;stroke-width:1.0;"/><polygon fill="#A80036" points="259.47,624.48,269.2,622.9545,263.6694,621.7661,264.8578,616.2355,259.47,624.48" style="stroke:#A80036;stroke-width:1.0;"/><!--MD5=[dc0470bf4ec233f20c7c20b737be2079]
link DecodificadorTexto to Musica--><path codeLine="113" d="M538,513.54 C538,538.87 538,576 538,606.6 " fill="none" id="DecodificadorTexto-to-Musica" style="stroke:#A80036;stroke-width:1.0;"/><polygon fill="#A80036" points="538,611.84,542,602.84,538,606.84,534,602.84,538,611.84" style="stroke:#A80036;stroke-width:1.0;"/><!--MD5=[0d3daf707f0727c8f6208f40d95f6c89]
link ControladorMusical to AdaptadorMusical--><path codeLine="114" d="M857,520.14 C857,536 857,555.35 857,574.56 " fill="none" id="ControladorMusical-to-AdaptadorMusical" style="stroke:#A80036;stroke-width:1.0;"/><polygon fill="#A80036" points="857,579.97,861,570.97,857,574.97,853,570.97,857,579.97" style="stroke:#A80036;stroke-width:1.0;"/><!--MD5=[30ca05da6a31f9e99e98f12680d53e46]
link ControladorMusical to ValidadorDeComando--><path codeLine="115" d="M912.9,520.14 C949.63,543.89 998.48,575.47 1040.54,602.66 " fill="none" id="ControladorMusical-to-ValidadorDeComando" style="stroke:#A80036;stroke-width:1.0;stroke-dasharray:7.0,7.0;"/><polygon fill="#A80036" points="1044.85,605.45,1039.4622,597.2055,1040.6506,602.7361,1035.12,603.9245,1044.85,605.45" style="stroke:#A80036;stroke-width:1.0;"/><!--MD5=[b32da690e438aa28f7a9d3c66551d285]
link TradutorTextoComando to Comando--><path codeLine="116" d="M221.27,698.89 C232.6,725.89 248.48,763.73 262.68,797.6 " fill="none" id="TradutorTextoComando-to-Comando" style="stroke:#A80036;stroke-width:1.0;"/><polygon fill="#A80036" points="264.77,802.56,264.99,792.7136,262.8419,797.9467,257.6087,795.7986,264.77,802.56" style="stroke:#A80036;stroke-width:1.0;"/><!--MD5=[b9a0f738aa170f99b10fad7721a5c344]
link AdaptadorJFugue to TradutorAdaptador--><path codeLine="117" d="M891.49,927.61 C909.97,953.67 932.29,985.12 948.9,1008.53 " fill="none" id="AdaptadorJFugue-to-TradutorAdaptador" style="stroke:#A80036;stroke-width:1.0;"/><polygon fill="#A80036" points="951.93,1012.8,949.9826,1003.1456,949.036,1008.7227,943.4589,1007.7761,951.93,1012.8" style="stroke:#A80036;stroke-width:1.0;"/><!--MD5=[76e561e2059fcdf75bea52265d9c6e9c]
link Musica to VisaoDeComando--><path codeLine="118" d="M538,711.17 C538,744.51 538,788.75 538,823.15 " fill="none" id="Musica-to-VisaoDeComando" style="stroke:#A80036;stroke-width:1.0;"/><polygon fill="#A80036" points="538,828.15,542,819.15,538,823.15,534,819.15,538,828.15" style="stroke:#A80036;stroke-width:1.0;"/><!--MD5=[a7599b661913602f3d9894907d5ab584]
@startuml classes

class Orquestrador{
    - DecodificadorTexto
    - ControladorMusical
    + orquestra( String , Boolean)
    + definirInstrumento(String)
}

abstract Interface{
    +getTexto():String
    +abrirGerenciadorDeArquivos()
    -checkBoxMarcada():Boolean
    -getArquivoDeTexto()
}

class LeitorDeArquivo{
    + getCaminhoDoArquivo():String
    + getTemArquivo(): Boolean
    + getConteudoDoArquivo():String
}

class ControladorDeGui{
    + executa()
}

class DecodificadorTexto{
    + traduzTexto(String):Musica
}

interface TradutorTextoComando{
    + traduz(String):comando
    + defineUltimoCaracter(Character );
}

class TradutorTextoParaComando implements TradutorTextoComando{}

class ControladorMusical{
    + executaMusica(Musica,Boolean)
    + defineInstrumento(Musica)
}

interface AdaptadorMusical{
    + adicionaNota(Comando)
    + adicionaNota(Comando, int)
    + tocaMusica()
    + aumentarOitava()
    + aumentarVolume()
    + defineInstrumento(Comando)
    + incrementaInstrumento(int)
    + limpaMusica()
    + salvaMusica()
}

class AdaptadorJFugue implements AdaptadorMusical{
    - instrumentoAtual
    - volumeAtual
    - oitavaAtual
    - patternCriado
}

class JFugueDownloader{
    + salvarMusica()
}

interface TradutorAdaptador{
    + traduzParaAdaptador(Comando):String
}

class TradutorJFugue implements TradutorAdaptador{

}

enum Comando{
    + DO
    + RE
    + MI
    + FA
    + SOL
    + LA
    + SI
    ...
}

class Musica{
    - sequenciaDeVisaoDeComando
    + getSequenciaDeVisaoDeComandos():List<VisaoDeComando>
    + setSequenciaDeVisaoDeComandos(List<VisaoDeComando>)
    + addVisaoDeComando(VisaoDeComando)
}

class VisaoDeComando{
    - Comando
    - Repeticoes
    + setRepeticoes(int)
    + incRepeticoes()
}

class ValidadorDeComando{
    + eNota(Comando):Boolean
    + eComandoDeVolume(Comando):Boolean
    + eComandoDeBPM(Comando):Boolean
    + eComandoDeOitava(Comando):Boolean
    + eComandoDeInstrumento(Comando):Boolean
}

Interface <|- - ControladorDeGui
Interface -> LeitorDeArquivo
ControladorDeGui - -> Orquestrador
AdaptadorJFugue - -> JFugueDownloader
Orquestrador - -> ControladorMusical
Orquestrador - -> DecodificadorTexto
DecodificadorTexto - -> TradutorTextoComando
DecodificadorTexto - -> Musica
ControladorMusical - -> AdaptadorMusical
ControladorMusical ..> ValidadorDeComando
TradutorTextoComando - -> Comando
AdaptadorJFugue - -> TradutorAdaptador
Musica - -> VisaoDeComando


@enduml

PlantUML version 1.2022.0(Tue Jan 11 13:16:42 BRT 2022)
(GPL source distribution)
Java Runtime: OpenJDK Runtime Environment
JVM: OpenJDK 64-Bit Server VM
Default Encoding: UTF-8
Language: en
Country: AU
--></g></svg>